<svg width="512" height="512" xmlns="http://www.w3.org/2000/svg">

 <g>
  <title>background</title>
  <rect fill="none" id="canvas_background" height="402" width="582" y="-1" x="-1"/>
 </g>
 <g>
  <title>Layer 1</title>
  <path id="svg_1" fill="#000000" d="m16,452.7c-2.6,0 -5.2,-1 -7.2,-2.9c-2.9,-2.7 -4,-6.8 -2.9,-10.6l28.5,-100.5c-22.5,-28.3 -34.4,-60.4 -34.4,-93c0,-50.5 27.1,-97.6 76.3,-132.9c48.1,-34.5 112,-53.5 179.7,-53.5c67.7,0 131.6,19 179.7,53.5c49.2,35.2 76.3,82.4 76.3,132.9c0,50.5 -27.1,97.6 -76.3,132.9c-48.1,34.4 -112,53.4 -179.7,53.4c-41.5,0 -82.6,-7.4 -119.3,-21.4l-117.2,41.4c-1.1,0.5 -2.3,0.7 -3.5,0.7zm240,-372.3c-129.5,0 -234.9,74.1 -234.9,165.2c0,29.3 11.4,58.3 33,83.9c2.3,2.7 3,6.3 2.1,9.7l-24.4,86.1l101.7,-36c2.4,-0.9 5,-0.8 7.4,0.1c35.1,14 75,21.4 115.2,21.4c129.5,0 234.9,-74.1 234.9,-165.3c-0.1,-90.9 -105.5,-165.1 -235,-165.1z"/>
 </g>
</svg>