<?xml version="1.0" standalone="no"?>
<!DOCTYPE svg PUBLIC "-//W3C//DTD SVG 20010904//EN"
 "http://www.w3.org/TR/2001/REC-SVG-20010904/DTD/svg10.dtd">
<svg version="1.0" xmlns="http://www.w3.org/2000/svg"
 width="128.000000pt" height="128.000000pt" viewBox="0 0 128.000000 128.000000"
 preserveAspectRatio="xMidYMid meet">
<metadata>
Created by potrace 1.15, written by Peter Selinger 2001-2017
</metadata>
<g transform="translate(0.000000,128.000000) scale(0.100000,-0.100000)"
fill="#000000" stroke="none">
<path d="M105 1167 c-3 -7 -4 -123 -3 -257 l3 -245 258 -3 257 -2 -2 257 -3
258 -253 3 c-198 2 -254 0 -257 -11z m465 -247 l0 -210 -210 0 -210 0 0 210 0
210 210 0 210 0 0 -210z"/>
<path d="M667 1174 c-4 -4 -7 -121 -7 -261 l0 -253 258 2 257 3 0 255 0 255
-251 3 c-138 1 -253 -1 -257 -4z m463 -254 l0 -210 -210 0 -210 0 0 210 0 210
210 0 210 0 0 -210z"/>
<path d="M105 607 c-3 -7 -4 -123 -3 -257 l3 -245 255 0 255 0 3 258 2 257
-255 0 c-197 0 -257 -3 -260 -13z m465 -247 l0 -210 -210 0 -210 0 0 210 0
210 210 0 210 0 0 -210z"/>
<path d="M662 363 l3 -258 255 0 255 0 0 255 0 255 -258 3 -257 2 2 -257z
m468 -3 l0 -210 -210 0 -210 0 0 210 0 210 210 0 210 0 0 -210z"/>
</g>
</svg>
