<svg width="60" height="60" xmlns="http://www.w3.org/2000/svg">

 <g>
  <title>background</title>
  <rect fill="none" id="canvas_background" height="402" width="582" y="-1" x="-1"/>
 </g>
 <g>
  <title stroke="#767676" fill="none">Layer 1</title>
  <path stroke-miterlimit="10" stroke-linejoin="round" stroke-linecap="round" stroke-width="1.5" stroke="#767676" fill="none" id="LinkedIn_3_" d="m59,36.268l0,21.444l-12.431,0l0,-20.007c0,-5.026 -1.799,-8.456 -6.297,-8.456c-3.438,0 -5.481,2.312 -6.381,4.546c-0.328,0.799 -0.412,1.912 -0.412,3.032l0,20.884l-12.433,0c0,0 0.166,-33.885 0,-37.395l12.433,0l0,5.299c-0.024,0.041 -0.057,0.083 -0.081,0.122l0.081,0l0,-0.122c1.65,-2.543 4.602,-6.178 11.206,-6.178c8.182,0.001 14.315,5.344 14.315,16.831zm-50.964,-33.979c-4.253,0 -7.036,2.79 -7.036,6.459c0,3.59 2.701,6.465 6.871,6.465l0.084,0c4.334,0 7.032,-2.875 7.032,-6.465c-0.081,-3.669 -2.697,-6.459 -6.951,-6.459zm-6.299,55.422l12.431,0l0,-37.394l-12.431,0l0,37.394z" class="st0"/>
 </g>
</svg>