<svg width="96" height="96" xmlns="http://www.w3.org/2000/svg">
 <title/>

 <g>
  <title>background</title>
  <rect fill="none" id="canvas_background" height="402" width="582" y="-1" x="-1"/>
 </g>
 <g>
  <title>Layer 1</title>
  <path fill="#186ad9" id="svg_2" d="m48,0a36.0393,36.0393 0 0 0 -36,36c0,32.5078 30.9375,57.6328 32.25,58.6875a6.0134,6.0134 0 0 0 7.5,0c1.3125,-1.0547 32.25,-26.1797 32.25,-58.6875a36.0393,36.0393 0 0 0 -36,-36zm0,81.9492c-7.582,-7.2422 -24,-25.3125 -24,-45.9492a24,24 0 0 1 48,0c0,20.6367 -16.418,38.707 -24,45.9492z"/>
  <path fill="#186ad9" id="svg_3" d="m48,24a12,12 0 1 0 12,12a12.0157,12.0157 0 0 0 -12,-12z"/>
 </g>
</svg>