<?xml version="1.0" standalone="no"?>
<!DOCTYPE svg PUBLIC "-//W3C//DTD SVG 20010904//EN"
 "http://www.w3.org/TR/2001/REC-SVG-20010904/DTD/svg10.dtd">
<svg version="1.0" xmlns="http://www.w3.org/2000/svg"
 width="340.000000pt" height="340.000000pt" viewBox="0 0 340.000000 340.000000"
 preserveAspectRatio="xMidYMid meet">
<metadata>
Created by potrace 1.15, written by Peter Selinger 2001-2017
</metadata>
<g transform="translate(0.000000,340.000000) scale(0.100000,-0.100000)"
fill="#000000" stroke="none">
<path d="M1299 3063 c-290 -291 -339 -343 -344 -375 -14 -73 40 -127 113 -113
31 6 76 45 288 256 l251 250 1 -781 c0 -430 3 -799 7 -820 11 -67 75 -103 139
-76 24 10 37 24 45 49 9 25 9 205 1 703 -5 368 -10 727 -10 799 l0 129 253
-251 c213 -212 258 -252 289 -258 73 -14 127 40 113 113 -5 32 -54 84 -344
375 l-337 337 -64 0 -64 0 -337 -337z"/>
<path d="M800 2425 c-370 -75 -662 -351 -772 -731 -22 -76 -23 -92 -23 -474 0
-382 1 -398 23 -474 106 -366 365 -621 735 -724 56 -15 142 -17 937 -17 795 0
881 2 937 17 189 53 344 141 472 270 126 126 210 272 263 454 22 76 23 92 23
474 0 382 -1 398 -23 474 -105 363 -363 619 -730 723 -40 11 -114 17 -247 20
l-190 5 -28 -27 c-34 -34 -38 -100 -8 -132 17 -18 35 -20 197 -26 185 -6 231
-14 342 -60 187 -77 361 -245 438 -426 33 -75 55 -148 62 -201 9 -71 9 -629 0
-700 -20 -154 -108 -321 -237 -450 -100 -98 -189 -153 -331 -202 l-95 -33
-845 0 -845 0 -95 33 c-142 49 -231 104 -331 202 -129 129 -217 296 -237 450
-9 71 -9 629 0 700 20 152 108 320 232 444 87 87 166 141 268 183 113 46 157
54 347 60 167 6 185 8 202 26 29 32 26 98 -7 131 l-27 26 -171 -1 c-98 0 -199
-7 -236 -14z"/>
</g>
</svg>
