<svg width="23.999999999999996" height="23.999999999999996" xmlns="http://www.w3.org/2000/svg">

 <g>
  <title>background</title>
  <rect fill="none" id="canvas_background" height="402" width="582" y="-1" x="-1"/>
 </g>
 <g>
  <title>Layer 1</title>
  <path fill="#186ad9" id="svg_1" d="m24,1.1c0,-0.6 -0.5,-1.1 -1.1,-1.1l-21.8,0c-0.6,0 -1.1,0.5 -1.1,1.1l0,21.8c0,0.6 0.5,1.1 1.1,1.1l21.8,0c0.6,0 1.1,-0.5 1.1,-1.1l0,-21.8zm-6,0.9l0,5l-12,0l0,-5l12,0zm-12,6l12,0l0,8l-12,0l0,-8zm-4,-6l3,0l0,2l-3,0l0,-2zm0,3l3,0l0,2l-3,0l0,-2zm0,3l3,0l0,2l-3,0l0,-2zm0,3l3,0l0,2l-3,0l0,-2zm0,3l3,0l0,2l-3,0l0,-2zm0,3l3,0l0,2l-3,0l0,-2zm0,5l0,-2l3,0l0,2l-3,0zm4,0l0,-5l12,0l0,5l-12,0zm16,0l-3,0l0,-2l3,0l0,2zm0,-3l-3,0l0,-2l3,0l0,2zm0,-3l-3,0l0,-2l3,0l0,2zm0,-3l-3,0l0,-2l3,0l0,2zm0,-3l-3,0l0,-2l3,0l0,2zm0,-3l-3,0l0,-2l3,0l0,2zm0,-3l-3,0l0,-2l3,0l0,2z"/>
 </g>
</svg>